<svg width="50" height="50" viewBox="0 0 50 50" fill="none" xmlns="http://www.w3.org/2000/svg">
<path d="M45.1875 4.21448L33.9277 4.21452V1.41187C33.9277 0.634912 33.2984 0.00561523 32.5214 0.00561523C31.7445 0.00561523 31.1152 0.634912 31.1152 1.41187V4.21382H19.8652V1.41187C19.8652 0.634912 19.2359 0.00561523 18.4589 0.00561523C17.682 0.00561523 17.0527 0.634912 17.0527 1.41187V4.21382H5.8125C4.2593 4.21382 3 5.47312 3 7.02632V42.1826C3 43.7358 4.2593 44.9951 5.8125 44.9951H45.1875C46.7407 44.9951 48 43.7358 48 42.1826V7.02632C48 5.47378 46.7407 4.21448 45.1875 4.21448V4.21448ZM45.1875 42.1826H5.8125V7.02632H17.0527V8.44312C17.0527 9.22003 17.682 9.84937 18.4589 9.84937C19.2359 9.84937 19.8652 9.22003 19.8652 8.44312V7.02703H31.1152V8.44382C31.1152 9.22078 31.7445 9.85007 32.5214 9.85007C33.2984 9.85007 33.9277 9.22078 33.9277 8.44382V7.02703H45.1875V42.1826ZM35.3438 22.4957H38.1562C38.9325 22.4957 39.5625 21.8657 39.5625 21.0895V18.277C39.5625 17.5007 38.9325 16.8707 38.1562 16.8707H35.3438C34.5675 16.8707 33.9375 17.5007 33.9375 18.277V21.0895C33.9375 21.8657 34.5675 22.4957 35.3438 22.4957ZM35.3438 33.745H38.1562C38.9325 33.745 39.5625 33.1157 39.5625 32.3388V29.5263C39.5625 28.75 38.9325 28.12 38.1562 28.12H35.3438C34.5675 28.12 33.9375 28.75 33.9375 29.5263V32.3388C33.9375 33.1164 34.5675 33.745 35.3438 33.745ZM26.9062 28.12H24.0938C23.3175 28.12 22.6875 28.75 22.6875 29.5263V32.3388C22.6875 33.1157 23.3175 33.745 24.0938 33.745H26.9062C27.6825 33.745 28.3125 33.1157 28.3125 32.3388V29.5263C28.3125 28.7507 27.6825 28.12 26.9062 28.12ZM26.9062 16.8707H24.0938C23.3175 16.8707 22.6875 17.5007 22.6875 18.277V21.0895C22.6875 21.8657 23.3175 22.4957 24.0938 22.4957H26.9062C27.6825 22.4957 28.3125 21.8657 28.3125 21.0895V18.277C28.3125 17.5 27.6825 16.8707 26.9062 16.8707ZM15.6562 16.8707H12.8438C12.0675 16.8707 11.4375 17.5007 11.4375 18.277V21.0895C11.4375 21.8657 12.0675 22.4957 12.8438 22.4957H15.6562C16.4325 22.4957 17.0625 21.8657 17.0625 21.0895V18.277C17.0625 17.5 16.4325 16.8707 15.6562 16.8707ZM15.6562 28.12H12.8438C12.0675 28.12 11.4375 28.75 11.4375 29.5263V32.3388C11.4375 33.1157 12.0675 33.745 12.8438 33.745H15.6562C16.4325 33.745 17.0625 33.1157 17.0625 32.3388V29.5263C17.0625 28.7507 16.4325 28.12 15.6562 28.12Z" fill="white"/>
</svg>
